<?xml version="1.0" encoding="UTF-8" standalone="no"?><!DOCTYPE svg PUBLIC "-//W3C//DTD SVG 1.1//EN" "http://www.w3.org/Graphics/SVG/1.1/DTD/svg11.dtd"><svg width="100%" height="100%" viewBox="0 0 393 393" version="1.1" xmlns="http://www.w3.org/2000/svg" xmlns:xlink="http://www.w3.org/1999/xlink" xml:space="preserve" xmlns:serif="http://www.serif.com/" style="fill-rule:evenodd;clip-rule:evenodd;stroke-linejoin:round;stroke-miterlimit:2;"><path d="M135.05,381.691l1.859,0.603l4.803,-14.778c-0.621,-0.2 -1.234,-0.422 -1.853,-0.629l-4.809,14.804Zm-37.209,-16.788l1.69,0.975l7.791,-13.49c-0.566,-0.325 -1.131,-0.647 -1.691,-0.976l-7.79,13.491Zm18.159,9.369l1.788,0.794l6.328,-14.216c-0.597,-0.262 -1.188,-0.534 -1.782,-0.803l-6.334,14.225Zm38.769,12.809l1.909,0.407l3.231,-15.197c-0.637,-0.132 -1.265,-0.3 -1.903,-0.438l-3.237,15.228Zm-137.278,-172.984l-15.482,1.625l0.204,1.941l15.496,-1.629c-0.071,-0.646 -0.156,-1.29 -0.218,-1.937Zm157.453,176.284l1.94,0.203l1.628,-15.484c-0.65,-0.066 -1.293,-0.147 -1.94,-0.219l-1.628,15.5Zm39.162,-15.284l1.635,15.544l1.94,-0.207l-1.637,-15.556c-0.647,0.072 -1.288,0.153 -1.938,0.219Zm-133.353,-21.406l1.578,1.147l9.169,-12.619c-0.525,-0.381 -1.066,-0.747 -1.591,-1.135l-9.156,12.607Zm-55.672,-102.794l-14.775,4.803l0.603,1.856l14.797,-4.806c-0.206,-0.622 -0.428,-1.231 -0.625,-1.853Zm-4.781,-18.197l-15.194,3.228l0.406,1.91l15.229,-3.235c-0.141,-0.64 -0.31,-1.266 -0.441,-1.903Zm11.444,35.787l-14.21,6.326l0.794,1.787l14.222,-6.331c-0.269,-0.594 -0.544,-1.185 -0.806,-1.782Zm33.19,72.263l1.453,1.306l10.435,-11.587c-0.488,-0.432 -0.991,-0.847 -1.472,-1.285l-10.416,11.566Zm-14.553,-39.647l-12.619,9.169l1.147,1.581l12.607,-9.156c-0.388,-0.525 -0.754,-1.066 -1.135,-1.594Zm0.166,25.116l1.306,1.453l11.569,-10.416c-0.441,-0.481 -0.853,-0.984 -1.288,-1.468l-11.587,10.431Zm144.772,49.737l-0,15.65l1.953,0l-0,-15.65c-0.328,0 -0.65,0.025 -0.978,0.025c-0.328,0 -0.65,-0.025 -0.975,-0.025Zm37.39,-3.672l3.244,15.263l1.91,-0.403l-3.254,-15.3c-0.637,0.14 -1.262,0.309 -1.9,0.44Zm127.338,-102.04l14.325,6.378l0.794,-1.785l-14.316,-6.371c-0.262,0.593 -0.537,1.184 -0.803,1.778Zm14.828,-54.21l15.625,1.641l0.203,-1.941l-15.609,-1.64c-0.066,0.65 -0.147,1.294 -0.219,1.94Zm1.078,-20.728c0,0.332 0.025,0.657 0.025,0.988c0,0.325 -0.025,0.64 -0.025,0.965l15.716,0l-0,-1.953l-15.716,0Zm-4.106,39.281l15.347,3.263l0.406,-1.909l-15.312,-3.257c-0.132,0.641 -0.304,1.266 -0.441,1.903Zm-20.435,52.366l13.585,7.841l0.975,-1.691l-13.588,-7.844c-0.321,0.566 -0.646,1.132 -0.972,1.694Zm15.472,-34.225l14.919,4.847l0.603,-1.859l-14.893,-4.838c-0.201,0.622 -0.425,1.231 -0.629,1.85Zm-98.387,108.109l6.362,14.288l1.785,-0.794l-6.366,-14.297c-0.594,0.269 -1.184,0.541 -1.781,0.803Zm-17.594,6.666l4.825,14.853l1.859,-0.606l-4.831,-14.872c-0.622,0.206 -1.231,0.428 -1.853,0.625Zm34.388,-15.134l7.834,13.572l1.691,-0.979l-7.832,-13.565c-0.562,0.328 -1.128,0.65 -1.693,0.972Zm55.796,-49.697l12.685,9.219l1.144,-1.582l-12.697,-9.228c-0.382,0.528 -0.747,1.069 -1.132,1.591Zm-11.903,14.562l11.644,10.485l1.306,-1.45l-11.665,-10.506c-0.435,0.487 -0.847,0.99 -1.285,1.471Zm-28.072,24.963l9.219,12.69l1.582,-1.146l-9.21,-12.675c-0.525,0.384 -1.062,0.753 -1.591,1.131Zm14.682,-11.753l10.493,11.656l1.454,-1.306l-10.479,-11.638c-0.481,0.441 -0.984,0.853 -1.468,1.288Zm-275.581,-45.16l-13.494,7.791l0.978,1.691l13.487,-7.791c-0.328,-0.559 -0.65,-1.125 -0.971,-1.691Zm245.09,-245.059c0.566,0.325 1.131,0.647 1.694,0.975l7.862,-13.619l-1.69,-0.978l-7.866,13.622Zm-16.791,-8.469c0.597,0.263 1.188,0.538 1.779,0.807l6.396,-14.363l-1.787,-0.794l-6.388,14.35Zm-73.193,-15.125c0.325,0 0.647,-0.025 0.975,-0.025c0.328,0 0.65,0.025 0.978,0.025l-0,-15.643l-1.953,-0l-0,15.643Zm18.828,0.863c0.65,0.065 1.294,0.15 1.94,0.222l1.644,-15.632l-1.944,-0.203l-1.64,15.613Zm36.784,7.6c0.622,0.197 1.231,0.422 1.85,0.625l4.856,-14.938l-1.859,-0.603l-4.847,14.916Zm64.86,37.05c0.487,0.434 0.987,0.85 1.471,1.287l10.516,-11.681l-1.453,-1.306l-10.534,11.7Zm-83.057,-41.835c0.641,0.135 1.269,0.304 1.904,0.441l3.268,-15.366l-1.912,-0.406l-3.26,15.331Zm68.382,30.085c0.528,0.381 1.068,0.747 1.59,1.134l9.247,-12.728l-1.581,-1.147l-9.256,12.741Zm-284.51,145.9c0,-0.331 0.022,-0.656 0.025,-0.988l-15.593,0l-0,1.953l15.593,0c-0.003,-0.325 -0.025,-0.64 -0.025,-0.965Zm350.897,-54.6l14.916,-4.847l-0.603,-1.856l-14.938,4.853c0.203,0.618 0.428,1.228 0.625,1.85Zm7.588,36.778l15.612,-1.641l-0.203,-1.94l-15.628,1.64c0.072,0.647 0.156,1.291 0.219,1.941Zm-2.81,-18.591l15.325,-3.256l-0.406,-1.909l-15.359,3.262c0.137,0.638 0.309,1.263 0.44,1.903Zm-30.072,-68.384l12.741,-9.256l-1.147,-1.582l-12.725,9.247c0.385,0.522 0.75,1.063 1.131,1.591Zm18.632,32.609l14.35,-6.387l-0.794,-1.785l-14.363,6.394c0.272,0.594 0.544,1.181 0.807,1.778Zm-8.466,-16.79l13.628,-7.869l-0.975,-1.691l-13.628,7.866c0.331,0.562 0.653,1.128 0.975,1.694Zm-10.219,-41.025l-1.306,-1.454l-11.672,10.513c0.438,0.478 0.853,0.984 1.284,1.469l11.694,-10.528Zm-163.675,-48.8l-1.631,-15.538l-1.944,0.206l1.635,15.55c0.647,-0.071 1.29,-0.153 1.94,-0.218Zm-137.284,88.106l-13.519,-7.803l-0.975,1.69l13.519,7.807c0.325,-0.566 0.644,-1.132 0.975,-1.694Zm10.328,-15.719l-12.628,-9.175l-1.147,1.581l12.644,9.188c0.381,-0.531 0.747,-1.069 1.131,-1.594Zm-25.812,49.944l-14.822,-4.816l-0.604,1.86l14.8,4.809c0.197,-0.622 0.422,-1.231 0.626,-1.853Zm-8.001,36.709l-15.506,-1.628l-0.203,1.941l15.491,1.628c0.062,-0.65 0.147,-1.294 0.218,-1.941Zm3.032,-18.565l-15.238,-3.238l-0.406,1.909l15.206,3.232c0.132,-0.641 0.3,-1.266 0.438,-1.903Zm11.815,-35.663l-14.25,-6.344l-0.793,1.785l14.237,6.337c0.263,-0.597 0.538,-1.187 0.806,-1.778Zm91.557,-90.562l-6.347,-14.253l-1.788,0.79l6.353,14.266c0.594,-0.269 1.185,-0.541 1.782,-0.803Zm-73.585,34.596l11.613,10.46c0.434,-0.488 0.847,-0.991 1.287,-1.472l-11.593,-10.441l-1.307,1.453Zm109.36,-46.037l-3.241,-15.244l-1.912,0.406l3.246,15.279c0.638,-0.138 1.266,-0.307 1.907,-0.441Zm-18.191,4.778l-4.816,-14.828l-1.859,0.603l4.825,14.85c0.619,-0.206 1.228,-0.428 1.85,-0.625Zm-76.791,26.728l10.444,11.597c0.481,-0.437 0.985,-0.853 1.472,-1.284l-10.462,-11.619l-1.454,1.306Zm15.819,-12.947l9.184,12.644c0.525,-0.387 1.063,-0.753 1.591,-1.134l-9.194,-12.657l-1.581,1.147Zm26.591,1.347l-7.813,-13.534l-1.69,0.975l7.812,13.531c0.563,-0.328 1.128,-0.65 1.691,-0.972Z" style="fill:#15191c;fill-rule:nonzero;"/><path d="M193.366,368.094l-0,23.512l5.859,0l0,-23.512c-0.978,0.015 -1.947,0.075 -2.931,0.075c-0.981,-0 -1.95,-0.06 -2.928,-0.075Zm86.325,-21.516l11.74,20.338l5.075,-2.928l-11.737,-20.332c-1.672,1.006 -3.369,1.969 -5.078,2.922Zm63.981,-61.837l20.347,11.747l2.931,-5.075l-20.359,-11.754c-0.947,1.707 -1.913,3.407 -2.919,5.082Zm24.419,-91.388c0.015,0.981 0.075,1.953 0.075,2.941c-0,0.978 -0.06,1.944 -0.075,2.918l23.578,0l-0,-5.859l-23.578,0Zm-342.347,98.028l2.928,5.075l20.253,-11.694c-1.003,-1.671 -1.969,-3.371 -2.919,-5.078l-20.262,11.697Zm70.406,72.544l5.075,2.931l11.697,-20.262c-1.706,-0.95 -3.406,-1.916 -5.078,-2.922l-11.694,20.253Zm97.216,-339.431c0.978,-0.016 1.947,-0.075 2.928,-0.075c0.984,-0 1.953,0.059 2.931,0.075l0,-23.506l-5.859,-0l-0,23.506Zm86.337,21.525c1.706,0.95 3.406,1.915 5.081,2.922l11.766,-20.385l-5.075,-2.928l-11.772,20.391Zm-278.665,147.334l-0,5.859l23.456,0c-0.016,-0.974 -0.075,-1.94 -0.075,-2.918c-0,-0.988 0.059,-1.96 0.075,-2.941l-23.456,0Zm342.625,-85.519c1.006,1.672 1.971,3.372 2.921,5.082l20.397,-11.775l-2.931,-5.075l-20.387,11.768Zm-317.938,-6.659l20.288,11.716c0.953,-1.71 1.915,-3.41 2.921,-5.082l-20.278,-11.709l-2.931,5.075Zm87.194,-55.178l-11.719,-20.303l-5.075,2.931l11.716,20.294c1.671,-1.006 3.372,-1.972 5.078,-2.922Z" style="fill:#15191c;fill-rule:nonzero;"/><path d="M56.206,192.509c0,-6.04 -1.781,-9.409 -6,-9.409c-3.559,0 -5.572,2.709 -5.572,7.397c0,4.125 1.922,6.559 5.341,6.559c2.575,0 4.541,-1.078 6.181,-2.862c0,-0.513 0.05,-1.072 0.05,-1.685Zm-12.884,17.666c6.469,-2.619 10.872,-6.184 12.322,-12.512c-1.685,1.037 -3.797,1.737 -6.138,1.737c-5.672,0 -9.553,-3.516 -9.553,-8.856c0,-5.76 4.119,-9.788 10.253,-9.788c7.172,0 10.682,4.356 10.682,11.753c-0,10.45 -7.069,16.675 -16.766,19.441l-0.8,-1.775Z" style="fill:#15191c;fill-rule:nonzero;"/><path d="M75.109,261.228c0,-3.137 -2.162,-4.925 -4.918,-4.925c-3.238,0 -5.153,1.881 -5.153,5.016c-0,3.09 3.271,4.309 6.837,5.665c2.391,-1.537 3.234,-3.278 3.234,-5.756Zm-11.059,15.175c-0,3.753 2.344,6.097 6.275,6.097c3.794,-0 6,-2.394 6,-6.097c-0,-4.45 -4.544,-5.475 -8.712,-7.062c-2.482,1.628 -3.563,3.925 -3.563,7.062Zm-3.328,-14.753c-0,-4.638 3.887,-7.628 9.516,-7.628c5.712,-0 9.181,2.806 9.181,7.25c-0,2.625 -2.063,5.059 -5.11,6.75c3.466,1.544 6.563,3.7 6.563,8.381c-0,5.247 -4.219,8.441 -10.547,8.441c-6.6,-0 -10.822,-2.766 -10.822,-8.203c0,-3.566 2.672,-6.325 5.95,-8.204c-2.625,-1.312 -4.731,-3.137 -4.731,-6.787Z" style="fill:#15191c;fill-rule:nonzero;"/><path d="M114.331,307.834c0,0 4.447,0.091 9.46,0.091c5.015,0 9.656,-0.091 9.656,-0.091l0.884,2.197c0,0 -11.003,16.213 -11.003,22.628c0,1.507 0.463,2.863 1.731,3.8c-1.031,1.222 -2.153,1.972 -3.284,1.972c-1.775,0 -3.319,-1.928 -3.319,-4.637c0,-5.166 3.181,-9.053 12.366,-22.303l-13.397,-0c-0.609,1.734 -0.941,3.565 -1.081,5.384c-0.328,0.091 -0.66,0.147 -0.981,0.147c-0.332,-0 -0.66,-0.056 -0.985,-0.147c-0.237,-3.091 -0.75,-6.984 -0.75,-8.247l0.703,-0.794Z" style="fill:#15191c;fill-rule:nonzero;"/><path d="M261.4,321.916l1.306,-13.391l0.935,-0.756c2.718,0.097 4.822,0.147 7.49,0.147c2.672,-0 4.553,-0.05 6.244,-0.1l0.975,0.753c0,-0 -0.091,1.825 -0.372,2.897l-12.653,-0l-0.847,8.668c1.928,-0.843 3.894,-1.312 5.909,-1.312c5.994,-0 9.838,3.375 9.838,9.466c0,5.671 -4.113,10.168 -10.4,10.168c-5.756,0 -9.988,-2.672 -9.988,-6.512c0,-1.922 1.088,-3.094 2.869,-3.094c0.894,-0 1.728,0.288 2.431,0.841c-0.274,0.659 -0.415,1.271 -0.415,2.015c-0,2.581 2.112,4.406 5.103,4.406c3.931,0 5.994,-2.671 5.994,-7.775c-0,-4.546 -2.291,-7.031 -6.319,-7.031c-2.203,0 -4.363,0.66 -6.744,2.013l-1.356,-1.403Z" style="fill:#15191c;fill-rule:nonzero;"/><path d="M311.763,275.237l10.35,-20.806c1.778,0 3.278,0.335 4.212,1.178l-10.584,18.504l10.54,-0l0,-8.147c1.544,-0.057 2.956,-0.8 3.322,-2.113l1.135,0l-0,10.213l4.353,0.931l-0,1.925l-4.547,-0l-0,7.544l-4.263,-0l0,-7.544l-14.147,-0l-0.371,-1.685Z" style="fill:#15191c;fill-rule:nonzero;"/><path d="M339.753,194.403c4.969,-0.14 7.872,-2.203 7.872,-6.281c0,-3.228 -1.737,-4.963 -4.681,-4.963c-3.147,0 -4.741,1.966 -4.741,4.26c0,0.753 0.188,1.362 0.519,1.925c-0.8,0.609 -1.638,0.89 -2.535,0.89c-1.446,0 -2.384,-1.268 -2.384,-3.234c0,-3.375 3.844,-6.184 9.228,-6.184c5.528,-0 9.232,2.997 9.232,7.306c-0,2.625 -1.079,5.578 -6.469,7.312c5.062,1.216 6.837,4.078 6.837,7.728c0,4.875 -3.881,8.576 -10.072,8.576c-6.225,-0 -9.978,-2.626 -9.978,-6.838c0,-1.878 1.403,-2.772 2.906,-2.772c0.847,0 1.732,0.331 2.391,0.844c-0.281,0.756 -0.422,1.5 -0.422,2.159c0,2.528 1.966,4.263 5.341,4.263c3.469,-0 5.441,-2.432 5.441,-6.232c-0,-3.931 -2.816,-6.556 -8.485,-6.556l0,-2.203Z" style="fill:#15191c;fill-rule:nonzero;"/><path d="M313.3,135.456c11.291,-9.694 14.716,-14.431 14.716,-19.581c-0,-3.847 -1.735,-5.763 -5.11,-5.763c-3.044,0 -4.968,2.107 -4.968,4.641c-0,0.981 0.331,1.963 1.031,2.903c-0.61,0.653 -1.585,1.075 -2.575,1.075c-1.544,0 -3.038,-0.984 -3.038,-3.7c0,-3.747 4.26,-7.262 9.55,-7.262c6.044,-0 9.797,3.234 9.797,8.575c0,5.012 -3.709,10.259 -14.106,18.268l15.322,0l-0,3.707l-20.619,-0l0,-2.863Z" style="fill:#15191c;fill-rule:nonzero;"/><path d="M261.95,83.081c2.759,-0.281 5.103,-0.75 6.741,-1.453l-0,-22.344l-6.657,0l0,-2.156c3.847,-0.372 6.894,-1.453 9.379,-2.766l1.69,0.654l0,26.612c1.447,0.75 5.047,1.313 6.225,1.453l-0.184,1.732l-17.335,-0l0.141,-1.732Z" style="fill:#15191c;fill-rule:nonzero;"/><path d="M176.378,63.494c2.76,-0.282 5.103,-0.75 6.738,-1.453l-0,-22.344l-6.654,-0l0,-2.156c3.847,-0.372 6.894,-1.45 9.375,-2.763l1.688,0.653l-0,26.61c1.45,0.753 5.059,1.312 6.231,1.453l-0.19,1.734l-17.335,0l0.147,-1.734Z" style="fill:#15191c;fill-rule:nonzero;"/><path d="M196.766,62.372c11.29,-9.7 14.709,-14.428 14.709,-19.588c0,-3.837 -1.734,-5.756 -5.109,-5.756c-3.047,0 -4.963,2.106 -4.963,4.641c0,0.975 0.322,1.965 1.025,2.9c-0.603,0.656 -1.587,1.078 -2.575,1.078c-1.544,-0 -3.041,-0.981 -3.041,-3.703c0,-3.744 4.26,-7.26 9.554,-7.26c6.04,0 9.79,3.232 9.79,8.572c0,5.016 -3.693,10.266 -14.1,18.272l15.319,0l0,3.7l-20.609,0l-0,-2.856Z" style="fill:#15191c;fill-rule:nonzero;"/><path d="M113.769,83.088c2.759,-0.282 5.103,-0.754 6.743,-1.454l0,-22.347l-6.653,0l0,-2.153c3.841,-0.371 6.891,-1.453 9.369,-2.765l1.691,0.653l-0,26.612c1.447,0.75 5.059,1.313 6.231,1.454l-0.187,1.731l-17.335,-0l0.141,-1.731Z" style="fill:#15191c;fill-rule:nonzero;"/><path d="M133.875,83.088c2.762,-0.282 5.106,-0.754 6.744,-1.454l-0,-22.347l-6.653,0l-0,-2.153c3.843,-0.371 6.89,-1.453 9.368,-2.765l1.691,0.653l0,26.612c1.453,0.75 5.059,1.313 6.231,1.454l-0.187,1.731l-17.335,-0l0.141,-1.731Z" style="fill:#15191c;fill-rule:nonzero;"/><path d="M59.644,136.609c2.762,-0.281 5.106,-0.753 6.75,-1.453l-0,-22.347l-6.653,0l-0,-2.153c3.837,-0.372 6.884,-1.453 9.362,-2.765l1.691,0.653l-0,26.612c1.453,0.75 5.059,1.313 6.231,1.453l-0.187,1.732l-17.335,-0l0.141,-1.732Z" style="fill:#15191c;fill-rule:nonzero;"/><path d="M98.534,123.162c0,-7.825 -1.171,-12.878 -6.975,-12.878c-5.812,0 -6.978,5.053 -6.978,12.878c0,7.872 1.166,12.975 6.978,12.975c5.804,0 6.975,-5.103 6.975,-12.975Zm-18.55,0c0,-9.459 3.7,-15.362 11.575,-15.362c7.872,0 11.572,5.903 11.572,15.362c0,9.419 -3.7,15.46 -11.572,15.46c-7.875,-0 -11.575,-6.041 -11.575,-15.46Z" style="fill:#15191c;fill-rule:nonzero;"/></svg>